<svg width="200" height="190" viewBox="0 0 200 190" fill="none" xmlns="http://www.w3.org/2000/svg">
<path d="M130 0H70V10H130V0Z" fill="#2B83F6"/>
<path d="M150 10H50V20H150V10Z" fill="#2B83F6"/>
<path d="M60 20H30V30H60V20Z" fill="#2B83F6"/>
<path d="M70 20H60V30H70V20Z" fill="#4BEA69"/>
<path d="M120 20H70V30H120V20Z" fill="#2B83F6"/>
<path d="M130 20H120V30H130V20Z" fill="#4BEA69"/>
<path d="M150 20H130V30H150V20Z" fill="#2B83F6"/>
<path d="M170 20H150V30H170V20Z" fill="#4BEA69"/>
<path d="M40 30H20V40H40V30Z" fill="#2B83F6"/>
<path d="M70 30H40V40H70V30Z" fill="#4BEA69"/>
<path d="M120 30H70V40H120V30Z" fill="#2B83F6"/>
<path d="M180 30H120V40H180V30Z" fill="#4BEA69"/>
<path d="M40 40H20V50H40V40Z" fill="#2B83F6"/>
<path d="M60 40H40V50H60V40Z" fill="#4BEA69"/>
<path d="M110 40H60V50H110V40Z" fill="#2B83F6"/>
<path d="M180 40H110V50H180V40Z" fill="#4BEA69"/>
<path d="M20 50H10V60H20V50Z" fill="#4BEA69"/>
<path d="M40 50H20V60H40V50Z" fill="#2B83F6"/>
<path d="M70 50H40V60H70V50Z" fill="#4BEA69"/>
<path d="M100 50H70V60H100V50Z" fill="#2B83F6"/>
<path d="M190 50H100V60H190V50Z" fill="#4BEA69"/>
<path d="M30 60H10V70H30V60Z" fill="#4BEA69"/>
<path d="M50 60H30V70H50V60Z" fill="#2B83F6"/>
<path d="M60 60H50V70H60V60Z" fill="#4BEA69"/>
<path d="M100 60H60V70H100V60Z" fill="#2B83F6"/>
<path d="M190 60H100V70H190V60Z" fill="#4BEA69"/>
<path d="M30 70H0V80H30V70Z" fill="#4BEA69"/>
<path d="M110 70H30V80H110V70Z" fill="#2B83F6"/>
<path d="M200 70H110V80H200V70Z" fill="#4BEA69"/>
<path d="M30 80H0V90H30V80Z" fill="#4BEA69"/>
<path d="M160 80H30V90H160V80Z" fill="#2B83F6"/>
<path d="M200 80H160V90H200V80Z" fill="#4BEA69"/>
<path d="M40 90H0V100H40V90Z" fill="#4BEA69"/>
<path d="M110 90H40V100H110V90Z" fill="#2B83F6"/>
<path d="M200 90H110V100H200V90Z" fill="#4BEA69"/>
<path d="M50 100H0V110H50V100Z" fill="#4BEA69"/>
<path d="M100 100H50V110H100V100Z" fill="#2B83F6"/>
<path d="M190 100H100V110H190V100Z" fill="#4BEA69"/>
<path d="M200 100H190V110H200V100Z" fill="#2B83F6"/>
<path d="M60 110H0V120H60V110Z" fill="#4BEA69"/>
<path d="M100 110H60V120H100V110Z" fill="#2B83F6"/>
<path d="M180 110H100V120H180V110Z" fill="#4BEA69"/>
<path d="M200 110H180V120H200V110Z" fill="#2B83F6"/>
<path d="M60 120H0V130H60V120Z" fill="#4BEA69"/>
<path d="M100 120H60V130H100V120Z" fill="#2B83F6"/>
<path d="M170 120H100V130H170V120Z" fill="#4BEA69"/>
<path d="M200 120H170V130H200V120Z" fill="#2B83F6"/>
<path d="M40 130H10V140H40V130Z" fill="#4BEA69"/>
<path d="M100 130H40V140H100V130Z" fill="#2B83F6"/>
<path d="M170 130H100V140H170V130Z" fill="#4BEA69"/>
<path d="M190 130H170V140H190V130Z" fill="#2B83F6"/>
<path d="M30 140H10V150H30V140Z" fill="#4BEA69"/>
<path d="M110 140H30V150H110V140Z" fill="#2B83F6"/>
<path d="M150 140H110V150H150V140Z" fill="#4BEA69"/>
<path d="M190 140H150V150H190V140Z" fill="#2B83F6"/>
<path d="M30 150H20V160H30V150Z" fill="#4BEA69"/>
<path d="M120 150H30V160H120V150Z" fill="#2B83F6"/>
<path d="M160 150H120V160H160V150Z" fill="#4BEA69"/>
<path d="M180 150H160V160H180V150Z" fill="#2B83F6"/>
<path d="M30 160H20V170H30V160Z" fill="#4BEA69"/>
<path d="M70 160H30V170H70V160Z" fill="#2B83F6"/>
<path d="M150 160H70V170H150V160Z" fill="#4BEA69"/>
<path d="M180 160H150V170H180V160Z" fill="#2B83F6"/>
<path d="M170 170H30V180H170V170Z" fill="#2B83F6"/>
<path d="M150 180H50V190H150V180Z" fill="#2B83F6"/>
</svg>
